<svg xmlns="http://www.w3.org/2000/svg"
     width="64" height="64" viewBox="0 0 64 64">
  <g transform="translate(64 0) scale(-1 1)">
    <path d="M 10.387 41.866 C 13.694 50.953, 22.331 57.000, 32.000 57.000 C 41.669 57.000, 50.306 50.953, 53.613 41.866 C 56.920 32.780, 54.191 22.596, 46.784 16.381 C 39.377 10.166, 28.874 9.247, 20.500 14.081"
          fill="none" stroke="#FFFFFF" stroke-width="5"
          stroke-linecap="round" stroke-linejoin="round"/>
    <polygon points="17.902,15.581 23.928,4.019 30.928,16.144" fill="#FFFFFF"/>
  </g>
  <path d="M27.763,34.417 Q29.037,34.720 29.752,35.680 Q30.469,36.636 30.469,38.042 Q30.469,40.198 29.133,41.383 Q27.797,42.564 25.336,42.564 Q24.512,42.564 23.637,42.383 Q22.763,42.202 21.832,41.839 L21.832,39.936 Q22.568,40.414 23.446,40.658 Q24.326,40.902 25.285,40.902 Q26.953,40.902 27.828,40.170 Q28.703,39.439 28.703,38.042 Q28.703,36.752 27.890,36.027 Q27.077,35.298 25.628,35.298 L24.098,35.298 L24.098,33.677 L25.699,33.677 Q27.007,33.677 27.701,33.095 Q28.396,32.514 28.396,31.420 Q28.396,30.298 27.679,29.698 Q26.964,29.095 25.628,29.095 Q24.897,29.095 24.062,29.273 Q23.227,29.448 22.225,29.817 L22.225,28.061 Q23.238,27.748 24.121,27.592 Q25.004,27.436 25.786,27.436 Q27.808,27.436 28.984,28.458 Q30.162,29.477 30.162,31.214 Q30.162,32.427 29.538,33.261 Q28.913,34.095 27.763,34.417 Z M37.632,28.998 Q36.262,28.998 35.570,30.498 Q34.881,31.995 34.881,35.005 Q34.881,38.002 35.570,39.502 Q36.262,41.002 37.632,41.002 Q39.013,41.002 39.702,39.502 Q40.394,38.002 40.394,35.005 Q40.394,31.995 39.702,30.498 Q39.013,28.998 37.632,28.998 Z M37.632,27.436 Q39.840,27.436 41.004,29.377 Q42.168,31.314 42.168,35.005 Q42.168,38.686 41.004,40.627 Q39.840,42.564 37.632,42.564 Q35.427,42.564 34.262,40.627 Q33.098,38.686 33.098,35.005 Q33.098,31.314 34.262,29.377 Q35.427,27.436 37.632,27.436 Z" fill="#FFFFFF"/>
</svg>
